# xmcd CD database file
#
# Track frame offsets:
#	150
#	14255
#	29833
#	44576
#	63613
#	80235
#	98181
#	112523
#	129242
#	146661
#	160456
#
# Disc length: 2302 seconds
#
# Revision: 0
# Processed by: cddbd v1.5.1PL0 Copyright (c) Steve Scherf et al.
# Submitted via: CDex 1.51
#
DISCID=9808fc0b
DTITLE=Jake's Blues Band - Jake's Blues Band
DYEAR=2005
DGENRE=Blues
TTITLE0=Wanna be alone
TTITLE1=Two worlds
TTITLE2=Change
TTITLE3=In my mind
TTITLE4=Everytime I have luck
TTITLE5=Soul man's coming
TTITLE6=Going down
TTITLE7=All right
TTITLE8=Back home
TTITLE9=See my darling
TTITLE10=Rock me baby
EXTD=YEAR: 2005
EXTT0=
EXTT1=
EXTT2=
EXTT3=
EXTT4=
EXTT5=
EXTT6=
EXTT7=
EXTT8=
EXTT9=
EXTT10=
PLAYORDER=
